<?xml version="1.0" encoding="UTF-8" standalone="no"?>
<!-- Created with Inkscape (http://www.inkscape.org/) -->

<svg
   xmlns:dc="http://purl.org/dc/elements/1.1/"
   xmlns:cc="http://creativecommons.org/ns#"
   xmlns:rdf="http://www.w3.org/1999/02/22-rdf-syntax-ns#"
   xmlns:svg="http://www.w3.org/2000/svg"
   xmlns="http://www.w3.org/2000/svg"
   xmlns:sodipodi="http://sodipodi.sourceforge.net/DTD/sodipodi-0.dtd"
   xmlns:inkscape="http://www.inkscape.org/namespaces/inkscape"
   width="744.09448819"
   height="1052.3622047"
   id="svg2"
   version="1.1"
   inkscape:version="0.48.3.1 r9886"
   sodipodi:docname="04.svg">
  <defs
     id="defs4" />
  <sodipodi:namedview
     id="base"
     pagecolor="#ffffff"
     bordercolor="#666666"
     borderopacity="1.0"
     inkscape:pageopacity="0.0"
     inkscape:pageshadow="2"
     inkscape:zoom="0.49497475"
     inkscape:cx="314.74758"
     inkscape:cy="401.61116"
     inkscape:document-units="px"
     inkscape:current-layer="layer1"
     showgrid="true"
     showguides="true"
     inkscape:snap-global="true"
     inkscape:window-width="1596"
     inkscape:window-height="879"
     inkscape:window-x="0"
     inkscape:window-y="0"
     inkscape:window-maximized="0">
    <inkscape:grid
       type="xygrid"
       id="grid3001" />
  </sodipodi:namedview>
  <metadata
     id="metadata7">
    <rdf:RDF>
      <cc:Work
         rdf:about="">
        <dc:format>image/svg+xml</dc:format>
        <dc:type
           rdf:resource="http://purl.org/dc/dcmitype/StillImage" />
        <dc:title />
      </cc:Work>
    </rdf:RDF>
  </metadata>
  <g
     inkscape:label="Layer 1"
     inkscape:groupmode="layer"
     id="layer1">
    <path
       sodipodi:type="arc"
       style="fill:none;stroke:#000000;stroke-width:10;stroke-linecap:butt;stroke-linejoin:miter;stroke-miterlimit:4;stroke-opacity:1;stroke-dasharray:none"
       id="path3775"
       sodipodi:cx="140"
       sodipodi:cy="512.36218"
       sodipodi:rx="100"
       sodipodi:ry="100"
       d="m 240,512.36218 a 100,100 0 1 1 -200,0 100,100 0 1 1 200,0 z"
       transform="matrix(0.54761905,0,0,0.55172414,13.333333,369.6796)" />
    <path
       sodipodi:type="arc"
       style="fill:none;stroke:#000000;stroke-width:10;stroke-linecap:butt;stroke-linejoin:miter;stroke-miterlimit:4;stroke-opacity:1;stroke-dasharray:none"
       id="path3775-8"
       sodipodi:cx="140"
       sodipodi:cy="512.36218"
       sodipodi:rx="100"
       sodipodi:ry="100"
       d="m 240,512.36218 a 100,100 0 1 1 -200,0 100,100 0 1 1 200,0 z"
       transform="matrix(0.54761905,0,0,0.55172414,188.57143,369.6796)" />
    <path
       sodipodi:type="arc"
       style="fill:#c8c8c8;stroke:#000000;stroke-width:10;stroke-linecap:butt;stroke-linejoin:miter;stroke-miterlimit:4;stroke-opacity:1;stroke-dasharray:none;fill-opacity:1"
       id="path3775-9"
       sodipodi:cx="140"
       sodipodi:cy="512.36218"
       sodipodi:rx="100"
       sodipodi:ry="100"
       d="m 240,512.36218 a 100,100 0 1 1 -200,0 100,100 0 1 1 200,0 z"
       transform="matrix(0.54761905,0,0,0.55172414,363.80952,369.6796)" />
    <path
       sodipodi:type="arc"
       style="fill:none;stroke:#000000;stroke-width:10;stroke-linecap:butt;stroke-linejoin:miter;stroke-miterlimit:4;stroke-opacity:1;stroke-dasharray:none"
       id="path3775-3"
       sodipodi:cx="140"
       sodipodi:cy="512.36218"
       sodipodi:rx="100"
       sodipodi:ry="100"
       d="m 240,512.36218 a 100,100 0 1 1 -200,0 100,100 0 1 1 200,0 z"
       transform="matrix(0.54761905,0,0,0.55172414,100.95238,237.2658)" />
    <path
       sodipodi:type="arc"
       style="fill:#646464;stroke:#000000;stroke-width:10;stroke-linecap:butt;stroke-linejoin:miter;stroke-miterlimit:4;stroke-opacity:1;stroke-dasharray:none;fill-opacity:1"
       id="path3775-8-7"
       sodipodi:cx="140"
       sodipodi:cy="512.36218"
       sodipodi:rx="100"
       sodipodi:ry="100"
       d="m 240,512.36218 a 100,100 0 1 1 -200,0 100,100 0 1 1 200,0 z"
       transform="matrix(0.54761905,0,0,0.55172414,276.19048,237.2658)" />
    <path
       sodipodi:type="arc"
       style="fill:none;stroke:#000000;stroke-width:10;stroke-linecap:butt;stroke-linejoin:miter;stroke-miterlimit:4;stroke-opacity:1;stroke-dasharray:none"
       id="path3775-9-1"
       sodipodi:cx="140"
       sodipodi:cy="512.36218"
       sodipodi:rx="100"
       sodipodi:ry="100"
       d="m 240,512.36218 a 100,100 0 1 1 -200,0 100,100 0 1 1 200,0 z"
       transform="matrix(0.54761905,0,0,0.55172414,451.42858,237.2658)" />
    <path
       sodipodi:type="arc"
       style="fill:#646464;stroke:#000000;stroke-width:10;stroke-linecap:butt;stroke-linejoin:miter;stroke-miterlimit:4;stroke-opacity:1;stroke-dasharray:none;fill-opacity:1"
       id="path3775-3-7"
       sodipodi:cx="140"
       sodipodi:cy="512.36218"
       sodipodi:rx="100"
       sodipodi:ry="100"
       d="m 240,512.36218 a 100,100 0 1 1 -200,0 100,100 0 1 1 200,0 z"
       transform="matrix(0.54761905,0,0,0.55172414,188.57143,104.85201)" />
    <path
       sodipodi:type="arc"
       style="fill:#c8c8c8;stroke:#000000;stroke-width:10;stroke-linecap:butt;stroke-linejoin:miter;stroke-miterlimit:4;stroke-opacity:1;stroke-dasharray:none;fill-opacity:1"
       id="path3775-8-7-9"
       sodipodi:cx="140"
       sodipodi:cy="512.36218"
       sodipodi:rx="100"
       sodipodi:ry="100"
       d="m 240,512.36218 a 100,100 0 1 1 -200,0 100,100 0 1 1 200,0 z"
       transform="matrix(0.54761905,0,0,0.55172414,363.80952,104.85201)" />
    <path
       sodipodi:type="arc"
       style="fill:none;stroke:#000000;stroke-width:10;stroke-linecap:butt;stroke-linejoin:miter;stroke-miterlimit:4;stroke-opacity:1;stroke-dasharray:none"
       id="path3775-9-1-9"
       sodipodi:cx="140"
       sodipodi:cy="512.36218"
       sodipodi:rx="100"
       sodipodi:ry="100"
       d="m 240,512.36218 a 100,100 0 1 1 -200,0 100,100 0 1 1 200,0 z"
       transform="matrix(0.54761905,0,0,0.55172414,539.04761,104.85201)" />
    <path
       style="fill:none;stroke-width:10;stroke-miterlimit:4;stroke-dasharray:none"
       d="m 251.49866,436.96628 c -3.63589,-0.69413 -12.18875,-6.62619 -19.00637,-13.18234 -22.52012,-21.65645 -23.26341,-49.42635 -1.89489,-70.79486 21.11941,-21.11941 48.19023,-21.11941 69.30963,0 21.27458,21.27457 20.61532,49.1473 -1.66936,70.57877 -14.44291,13.88994 -26.32416,17.29588 -46.73901,13.39843 l 0,0 z"
       id="path3762"
       inkscape:connector-curvature="0" />
  </g>
</svg>
